<svg width="17" height="16" viewBox="0 0 17 16" fill="none" xmlns="http://www.w3.org/2000/svg">
<path d="M14.9201 10.9672H5.61537L6.08256 10.0156L13.8451 10.0016C14.1076 10.0016 14.3326 9.81406 14.3794 9.55469L15.4544 3.5375C15.4826 3.37969 15.4404 3.21719 15.3372 3.09375C15.2863 3.033 15.2227 2.98407 15.1509 2.95034C15.0792 2.91661 15.0009 2.8989 14.9216 2.89844L5.04662 2.86562L4.96224 2.46875C4.90912 2.21562 4.68099 2.03125 4.42162 2.03125H2.00756C1.86127 2.03125 1.72098 2.08936 1.61754 2.1928C1.5141 2.29624 1.45599 2.43653 1.45599 2.58281C1.45599 2.7291 1.5141 2.86939 1.61754 2.97283C1.72098 3.07626 1.86127 3.13438 2.00756 3.13438H3.97474L4.34349 4.8875L5.25131 9.28281L4.08256 11.1906C4.02186 11.2725 3.9853 11.3698 3.97702 11.4714C3.96874 11.573 3.98906 11.675 4.03568 11.7656C4.12943 11.9516 4.31849 12.0688 4.52787 12.0688H5.50912C5.29993 12.3466 5.18694 12.685 5.18724 13.0328C5.18724 13.9172 5.90599 14.6359 6.79037 14.6359C7.67474 14.6359 8.39349 13.9172 8.39349 13.0328C8.39349 12.6844 8.27787 12.3453 8.07162 12.0688H10.5888C10.3796 12.3466 10.2666 12.685 10.2669 13.0328C10.2669 13.9172 10.9857 14.6359 11.8701 14.6359C12.7544 14.6359 13.4732 13.9172 13.4732 13.0328C13.4732 12.6844 13.3576 12.3453 13.1513 12.0688H14.9216C15.2247 12.0688 15.4732 11.8219 15.4732 11.5172C15.4723 11.3711 15.4136 11.2312 15.31 11.1282C15.2064 11.0251 15.0662 10.9673 14.9201 10.9672V10.9672ZM5.27631 3.95312L14.2732 3.98281L13.3919 8.91719L6.32474 8.92969L5.27631 3.95312ZM6.79037 13.5266C6.51849 13.5266 6.29662 13.3047 6.29662 13.0328C6.29662 12.7609 6.51849 12.5391 6.79037 12.5391C7.06224 12.5391 7.28412 12.7609 7.28412 13.0328C7.28412 13.1638 7.2321 13.2894 7.1395 13.3819C7.04691 13.4745 6.92132 13.5266 6.79037 13.5266V13.5266ZM11.8701 13.5266C11.5982 13.5266 11.3763 13.3047 11.3763 13.0328C11.3763 12.7609 11.5982 12.5391 11.8701 12.5391C12.1419 12.5391 12.3638 12.7609 12.3638 13.0328C12.3638 13.1638 12.3118 13.2894 12.2192 13.3819C12.1266 13.4745 12.001 13.5266 11.8701 13.5266V13.5266Z" fill="#8C8C8C"/>
</svg>
